<svg id="svg" version="1.1" xmlns="http://www.w3.org/2000/svg" xmlns:xlink="http://www.w3.org/1999/xlink" width="400" height="108.64564007421151" viewBox="0, 0, 400,108.64564007421151"><g id="svgg"><path id="path0" d="M34.748 5.658 C 26.770 7.751,24.035 18.476,27.337 34.721 C 27.591 35.971,27.559 36.113,27.000 36.225 C 25.633 36.498,21.352 38.169,18.571 39.515 C 17.830 39.874,17.163 40.167,17.089 40.167 C 17.014 40.167,16.478 40.467,15.897 40.833 C 15.317 41.200,14.790 41.500,14.728 41.500 C 14.262 41.500,10.424 44.398,8.784 45.990 C 7.585 47.153,5.500 49.966,5.500 50.420 C 5.500 50.528,5.390 50.836,5.256 51.105 C 3.209 55.207,5.424 60.913,10.667 65.044 C 11.670 65.834,12.788 66.634,13.279 66.912 C 13.538 67.059,14.088 67.398,14.500 67.666 C 15.299 68.185,20.914 71.000,21.150 71.000 C 21.275 71.000,22.318 71.417,23.250 71.839 C 23.433 71.922,24.474 72.289,25.562 72.655 C 27.948 73.456,27.711 73.198,27.418 74.679 C 25.925 82.221,25.666 88.789,26.688 93.250 C 26.877 94.075,27.098 95.076,27.180 95.474 C 27.392 96.503,28.685 99.103,29.573 100.285 C 32.917 104.732,39.588 105.189,46.917 101.472 C 49.752 100.034,49.731 100.046,52.572 98.083 C 55.136 96.311,55.456 96.062,58.207 93.694 C 60.245 91.940,60.055 91.966,61.421 93.247 C 62.705 94.451,62.936 94.641,65.000 96.200 C 68.329 98.714,73.407 101.832,74.175 101.833 C 74.317 101.833,74.505 101.897,74.592 101.975 C 74.895 102.247,76.962 102.982,78.405 103.330 C 89.804 106.086,95.307 98.173,93.702 81.333 C 93.514 79.359,92.663 74.285,92.409 73.623 C 92.324 73.401,94.713 72.333,95.294 72.333 C 95.401 72.333,96.523 71.916,97.786 71.407 C 117.360 63.513,120.985 51.958,106.850 42.515 C 104.646 41.042,97.495 37.500,96.726 37.500 C 96.647 37.500,95.795 37.200,94.833 36.833 C 93.871 36.467,92.920 36.167,92.719 36.167 C 92.173 36.167,92.158 36.032,92.523 34.408 C 93.637 29.451,94.059 23.735,93.663 19.000 C 92.444 4.463,82.446 1.176,68.273 10.651 C 67.368 11.255,66.329 11.946,65.963 12.186 C 65.597 12.426,65.249 12.692,65.190 12.778 C 65.131 12.863,64.821 13.114,64.500 13.335 C 64.179 13.557,63.842 13.820,63.750 13.920 C 63.658 14.020,62.946 14.635,62.167 15.285 C 61.387 15.936,60.573 16.658,60.358 16.889 L 59.965 17.309 59.441 16.834 C 57.287 14.884,54.229 12.387,53.555 12.028 C 53.356 11.922,53.088 11.731,52.960 11.603 C 52.832 11.475,52.170 11.011,51.488 10.573 C 44.856 6.305,38.922 4.563,34.748 5.658 M40.917 11.318 C 41.742 11.610,42.598 11.894,42.819 11.949 C 43.041 12.004,43.656 12.295,44.186 12.594 C 44.716 12.894,45.307 13.189,45.501 13.250 C 45.695 13.312,46.295 13.656,46.835 14.014 C 47.375 14.373,47.877 14.667,47.950 14.668 C 48.023 14.669,48.458 14.969,48.917 15.333 C 49.375 15.698,49.809 15.997,49.881 15.998 C 50.020 16.000,51.479 17.114,52.895 18.299 C 54.799 19.894,55.040 20.102,55.511 20.560 C 56.096 21.129,56.299 20.792,53.378 24.105 C 52.256 25.376,51.217 26.556,51.068 26.727 C 50.918 26.897,50.235 27.760,49.549 28.643 C 48.863 29.527,48.176 30.400,48.023 30.583 C 47.869 30.767,47.577 31.187,47.373 31.518 C 47.018 32.093,46.952 32.123,45.826 32.228 C 44.577 32.344,40.891 32.916,39.710 33.178 C 39.321 33.264,38.458 33.409,37.793 33.500 C 37.128 33.591,35.742 33.868,34.714 34.116 C 32.550 34.637,32.719 34.698,32.514 33.323 C 32.426 32.733,32.166 31.162,31.937 29.833 C 30.717 22.766,31.250 16.091,33.280 13.006 C 34.844 10.629,37.381 10.069,40.917 11.318 M84.548 11.022 C 88.276 12.909,89.589 21.654,87.648 31.667 C 87.039 34.807,87.244 34.610,85.149 34.078 C 84.196 33.836,82.929 33.578,82.333 33.505 C 81.737 33.431,79.915 33.137,78.283 32.852 C 76.650 32.567,74.795 32.286,74.159 32.227 C 73.079 32.126,72.974 32.080,72.550 31.518 C 72.301 31.187,72.038 30.892,71.965 30.861 C 71.893 30.831,71.833 30.718,71.833 30.611 C 71.833 30.504,71.533 30.079,71.167 29.667 C 70.800 29.254,70.500 28.860,70.500 28.792 C 70.500 28.723,70.369 28.534,70.208 28.371 C 70.048 28.208,69.396 27.439,68.759 26.662 C 66.946 24.452,64.329 21.534,64.069 21.434 C 63.585 21.249,63.879 20.864,65.612 19.409 C 66.591 18.588,67.528 17.785,67.696 17.625 C 67.863 17.465,68.058 17.333,68.130 17.333 C 68.201 17.333,68.502 17.112,68.798 16.841 C 69.734 15.986,72.505 14.161,74.333 13.195 C 75.021 12.832,75.808 12.415,76.083 12.269 C 76.358 12.122,76.668 12.002,76.770 12.001 C 76.873 12.000,77.323 11.836,77.770 11.636 C 80.063 10.609,83.175 10.327,84.548 11.022 M60.403 25.375 C 60.999 25.949,63.627 28.935,64.768 30.335 L 65.787 31.583 59.977 31.583 C 56.781 31.583,54.186 31.532,54.208 31.470 C 54.380 31.002,59.621 25.000,59.858 25.000 C 59.944 25.000,60.190 25.169,60.403 25.375 M66.078 37.012 C 69.977 37.231,70.143 37.269,70.577 38.033 C 70.764 38.363,71.442 39.432,72.083 40.409 C 74.371 43.894,74.667 44.361,74.667 44.490 C 74.667 44.561,74.859 44.903,75.094 45.250 C 75.329 45.596,75.750 46.300,76.030 46.815 C 77.457 49.437,77.802 50.088,78.857 52.148 C 79.486 53.375,80.000 54.479,80.000 54.600 C 80.000 55.031,75.989 62.797,75.064 64.159 C 74.846 64.481,74.667 64.800,74.667 64.868 C 74.667 64.936,74.348 65.481,73.958 66.078 C 73.569 66.676,72.950 67.654,72.583 68.252 C 72.217 68.851,71.616 69.770,71.249 70.295 C 70.881 70.820,70.480 71.447,70.357 71.687 C 70.059 72.269,69.551 72.314,62.250 72.398 C 53.964 72.493,50.210 72.341,49.854 71.896 C 48.913 70.719,45.684 65.692,44.482 63.532 C 42.895 60.680,40.895 56.918,40.425 55.899 L 39.869 54.697 41.404 51.640 C 42.248 49.959,43.129 48.246,43.362 47.833 C 43.595 47.421,44.142 46.446,44.578 45.667 C 45.014 44.887,45.448 44.153,45.544 44.035 C 45.640 43.917,46.213 43.007,46.817 42.012 C 47.422 41.017,48.342 39.564,48.862 38.782 L 49.808 37.360 50.696 37.252 C 53.953 36.852,61.225 36.739,66.078 37.012 M42.412 38.792 C 42.163 39.227,41.716 39.958,41.420 40.417 C 40.343 42.080,38.961 44.521,37.801 46.808 L 37.096 48.200 36.899 47.725 C 35.983 45.510,34.058 39.873,34.184 39.775 C 34.329 39.664,38.111 38.827,38.500 38.820 C 38.808 38.814,42.368 38.151,42.808 38.017 C 42.839 38.008,42.661 38.356,42.412 38.792 M83.698 39.289 L 85.647 39.726 85.558 40.238 C 85.510 40.520,85.184 41.575,84.834 42.583 C 84.484 43.592,84.147 44.604,84.086 44.833 C 83.976 45.239,83.037 47.623,82.886 47.877 C 82.845 47.947,82.591 47.591,82.322 47.086 C 80.480 43.621,78.172 39.679,77.588 39.000 C 77.469 38.862,77.326 38.595,77.268 38.406 L 77.164 38.061 79.457 38.457 C 80.718 38.674,82.627 39.048,83.698 39.289 M29.833 44.116 C 29.833 44.316,30.163 45.222,31.856 49.667 C 32.222 50.629,32.831 52.117,33.208 52.972 C 33.984 54.731,33.984 54.733,33.032 56.917 C 31.772 59.804,30.545 63.145,29.430 66.721 C 29.050 67.938,28.923 68.172,28.694 68.078 C 28.541 68.016,27.667 67.706,26.750 67.390 C 22.842 66.042,18.264 63.843,15.980 62.215 C 15.557 61.914,15.161 61.667,15.101 61.667 C 15.040 61.667,14.713 61.423,14.372 61.125 C 8.980 56.405,8.527 53.888,12.374 49.999 C 13.116 49.249,13.962 48.474,14.254 48.276 C 16.655 46.648,18.235 45.646,19.083 45.212 C 19.633 44.931,20.308 44.587,20.583 44.447 C 21.457 44.002,24.135 42.833,24.280 42.833 C 24.356 42.833,25.093 42.564,25.918 42.235 C 26.742 41.907,27.754 41.549,28.167 41.441 L 28.917 41.244 29.375 42.573 C 29.627 43.304,29.833 43.998,29.833 44.116 M94.246 42.311 C 94.977 42.598,95.633 42.833,95.704 42.833 C 96.092 42.833,101.363 45.425,102.553 46.201 C 103.087 46.549,103.575 46.834,103.637 46.835 C 103.699 46.836,104.125 47.135,104.583 47.500 C 105.042 47.865,105.467 48.164,105.529 48.165 C 105.948 48.171,109.067 51.546,109.634 52.606 C 110.248 53.753,110.132 55.821,109.390 56.980 C 108.465 58.422,108.088 58.879,106.974 59.905 C 105.915 60.880,103.024 63.000,102.753 63.000 C 102.702 63.000,102.380 63.177,102.038 63.392 C 101.020 64.035,98.570 65.283,97.628 65.639 C 97.145 65.821,96.237 66.202,95.609 66.485 C 94.982 66.768,94.380 67.000,94.272 67.000 C 94.164 67.000,93.515 67.215,92.830 67.478 C 90.828 68.245,90.833 68.244,90.833 67.816 C 90.833 67.218,88.645 60.835,88.300 60.425 C 88.227 60.338,88.167 60.136,88.167 59.976 C 88.167 59.816,87.914 59.131,87.605 58.453 C 87.297 57.776,86.949 56.928,86.833 56.569 C 86.717 56.210,86.479 55.633,86.304 55.285 L 85.987 54.654 86.394 53.702 C 88.069 49.784,90.833 42.125,90.833 41.403 C 90.833 41.162,92.348 41.565,94.246 42.311 M57.594 44.422 C 50.390 46.249,47.228 54.473,51.370 60.611 C 51.936 61.451,53.407 63.000,53.637 63.000 C 53.711 63.000,53.923 63.142,54.109 63.316 C 57.261 66.252,64.261 65.427,67.658 61.719 C 70.630 58.475,71.245 54.272,69.355 50.105 C 68.906 49.115,68.539 48.581,67.449 47.333 C 65.385 44.971,60.786 43.613,57.594 44.422 M37.918 62.792 C 38.927 64.741,39.727 66.128,41.697 69.342 L 42.810 71.159 41.780 71.062 C 41.214 71.009,39.512 70.699,38.000 70.373 C 36.487 70.047,35.002 69.746,34.698 69.704 C 34.379 69.660,34.176 69.548,34.217 69.439 C 34.256 69.335,34.535 68.462,34.837 67.500 C 35.140 66.537,35.675 64.987,36.027 64.054 C 36.379 63.122,36.667 62.273,36.667 62.168 C 36.667 61.947,36.976 61.333,37.088 61.333 C 37.129 61.333,37.503 61.990,37.918 62.792 M83.555 62.878 C 83.892 63.728,84.167 64.497,84.167 64.587 C 84.168 64.676,84.395 65.350,84.672 66.083 C 85.574 68.469,85.848 69.667,85.491 69.667 C 85.327 69.667,83.855 69.960,82.221 70.317 C 76.936 71.475,76.839 71.459,78.110 69.606 C 78.416 69.161,78.667 68.733,78.667 68.656 C 78.667 68.580,78.883 68.194,79.148 67.800 C 79.694 66.989,80.200 66.095,81.701 63.293 C 82.958 60.949,82.805 60.983,83.555 62.878 M36.750 75.614 C 38.217 75.935,39.979 76.260,40.667 76.336 C 45.688 76.893,47.500 77.315,47.500 77.929 C 47.500 78.247,53.808 85.885,54.999 87.010 C 55.247 87.244,55.590 87.649,55.760 87.909 L 56.070 88.382 55.160 89.219 C 53.217 91.006,47.677 95.167,47.240 95.167 C 47.180 95.167,46.813 95.382,46.424 95.644 C 42.780 98.104,37.501 99.297,35.270 98.165 C 31.735 96.372,30.437 88.576,32.080 79.002 C 32.293 77.763,32.519 76.375,32.583 75.917 C 32.763 74.624,32.364 74.653,36.750 75.614 M87.471 76.292 C 88.876 82.433,88.942 90.920,87.611 94.250 C 86.946 95.912,86.785 96.220,86.183 96.971 C 84.519 99.049,80.834 99.085,76.579 97.065 C 75.924 96.754,75.331 96.500,75.261 96.500 C 75.099 96.500,73.412 95.500,71.984 94.558 C 71.380 94.160,70.799 93.833,70.693 93.833 C 70.587 93.833,70.500 93.769,70.500 93.690 C 70.500 93.612,70.106 93.285,69.625 92.964 C 68.582 92.270,67.810 91.651,65.565 89.715 L 63.880 88.261 65.959 85.922 C 68.345 83.238,68.845 82.655,69.704 81.549 C 70.046 81.110,70.649 80.337,71.046 79.833 C 71.442 79.329,71.948 78.654,72.171 78.333 C 72.962 77.189,72.902 77.214,76.086 76.766 C 80.746 76.112,81.320 76.016,83.263 75.567 C 85.141 75.133,86.378 74.887,86.860 74.853 C 87.075 74.838,87.211 75.157,87.471 76.292 M65.512 78.070 C 65.322 78.273,65.167 78.491,65.167 78.556 C 65.167 78.890,60.237 84.338,59.949 84.322 C 59.686 84.308,56.228 80.382,54.511 78.148 L 54.177 77.713 60.017 77.708 L 65.858 77.703 65.512 78.070 " stroke="none" fill="#64dcfc" fill-rule="evenodd"></path><path id="path1" d="M135.698 62.744 C 125.780 64.995,124.116 78.657,133.198 83.266 C 136.862 85.124,141.947 84.716,145.138 82.307 L 146.036 81.629 145.701 81.294 L 145.367 80.959 144.579 81.561 C 137.993 86.589,128.285 81.737,128.285 73.417 C 128.284 65.108,138.191 60.253,144.661 65.391 C 145.816 66.309,146.353 65.658,145.244 64.684 C 143.201 62.890,138.904 62.017,135.698 62.744 M158.611 62.611 C 158.550 62.672,158.500 67.585,158.500 73.528 L 158.500 84.333 165.417 84.333 L 172.333 84.333 172.333 83.833 L 172.333 83.333 165.917 83.333 L 159.500 83.333 159.500 72.917 L 159.500 62.500 159.111 62.500 C 158.897 62.500,158.672 62.550,158.611 62.611 M189.184 62.758 C 181.118 64.508,178.040 74.957,183.801 81.034 C 189.393 86.932,200.183 84.789,202.649 77.291 C 205.522 68.557,198.314 60.777,189.184 62.758 M211.833 62.998 L 211.833 63.500 215.833 63.500 L 219.833 63.500 219.833 73.917 L 219.833 84.333 220.333 84.333 L 220.833 84.333 220.833 73.917 L 220.833 63.500 224.844 63.500 L 228.855 63.500 228.803 63.042 L 228.750 62.583 220.292 62.540 L 211.833 62.497 211.833 62.998 M239.944 62.611 C 239.883 62.672,239.833 67.585,239.833 73.528 L 239.833 84.333 240.333 84.333 L 240.833 84.333 240.833 79.083 L 240.833 73.833 248.500 73.833 L 256.167 73.833 256.167 79.083 L 256.167 84.333 256.667 84.333 L 257.167 84.333 257.167 73.406 L 257.167 62.478 256.708 62.531 L 256.250 62.583 256.206 67.708 L 256.162 72.833 248.498 72.833 L 240.833 72.833 240.833 67.667 L 240.833 62.500 240.444 62.500 C 240.231 62.500,240.006 62.550,239.944 62.611 M272.278 62.611 C 272.217 62.672,272.167 67.585,272.167 73.528 L 272.167 84.333 272.667 84.333 L 273.167 84.333 273.167 73.417 L 273.167 62.500 272.778 62.500 C 272.564 62.500,272.339 62.550,272.278 62.611 M288.167 73.417 L 288.167 84.333 288.665 84.333 L 289.164 84.333 289.207 74.465 L 289.250 64.597 296.917 74.423 C 303.408 82.743,304.654 84.258,305.043 84.303 L 305.502 84.356 305.460 73.470 L 305.417 62.583 304.960 62.531 L 304.503 62.478 304.460 72.447 L 304.417 82.417 301.945 79.250 C 300.586 77.508,298.486 74.820,297.278 73.275 C 296.071 71.731,294.896 70.219,294.667 69.916 C 293.855 68.841,290.270 64.242,289.847 63.732 C 289.610 63.447,289.286 63.054,289.127 62.857 C 288.967 62.661,288.686 62.500,288.502 62.500 C 288.170 62.500,288.167 62.593,288.167 73.417 M327.250 62.608 C 317.404 64.659,314.713 76.966,322.892 82.538 C 326.597 85.062,332.360 85.040,335.997 82.489 L 337.000 81.785 337.000 77.726 L 337.000 73.667 336.500 73.667 L 336.000 73.667 336.000 77.492 L 336.000 81.316 335.457 81.730 C 332.366 84.088,326.781 84.065,323.385 81.680 C 317.073 77.247,317.935 67.486,324.917 64.337 C 328.477 62.731,333.320 63.242,335.886 65.496 L 336.454 65.994 336.769 65.645 C 338.073 64.200,330.780 61.873,327.250 62.608 M195.000 63.763 C 204.971 66.746,204.526 81.006,194.391 83.261 C 186.889 84.930,180.488 78.625,182.076 71.131 C 183.253 65.581,189.386 62.084,195.000 63.763 " stroke="none" fill="#f5f5f5" fill-rule="evenodd"></path><path id="path2" d="M120.833 41.677 L 120.833 52.688 127.375 52.619 C 135.168 52.537,135.550 52.469,137.368 50.842 C 140.275 48.240,138.936 42.140,135.331 41.564 L 134.697 41.462 135.724 40.676 C 138.167 38.804,138.568 35.052,136.562 32.831 C 134.894 30.986,133.376 30.693,125.375 30.676 L 120.833 30.667 120.833 41.677 M146.833 41.643 L 146.833 52.667 147.833 52.667 L 148.833 52.667 148.833 49.083 L 148.833 45.500 152.913 45.500 L 156.993 45.500 157.328 46.155 C 157.511 46.516,157.739 46.858,157.834 46.917 C 157.985 47.011,158.971 48.383,160.147 50.137 C 160.366 50.462,160.722 50.920,160.939 51.154 C 161.156 51.388,161.333 51.661,161.333 51.761 C 161.333 52.258,162.109 52.667,163.052 52.667 C 164.373 52.667,164.407 52.766,161.972 49.516 C 161.669 49.113,161.346 48.653,161.253 48.494 C 160.853 47.814,159.586 46.047,159.197 45.627 C 158.965 45.376,158.806 45.148,158.845 45.122 C 158.885 45.095,159.392 44.852,159.973 44.582 C 165.001 42.246,165.184 34.653,160.279 31.867 C 158.533 30.875,158.014 30.801,152.208 30.706 L 146.833 30.619 146.833 41.643 M177.971 31.125 C 177.700 31.785,176.055 35.435,175.587 36.417 C 175.369 36.875,174.797 38.112,174.316 39.167 C 173.836 40.221,173.161 41.683,172.816 42.417 C 171.721 44.743,171.054 46.192,170.092 48.333 C 169.577 49.479,168.980 50.754,168.764 51.167 C 167.991 52.647,167.997 52.667,169.197 52.665 L 170.250 52.663 170.558 51.956 C 170.728 51.568,171.151 50.612,171.499 49.833 C 171.847 49.054,172.303 48.022,172.512 47.540 L 172.892 46.663 179.148 46.706 L 185.404 46.750 185.603 47.167 C 185.712 47.396,186.150 48.371,186.576 49.333 C 187.002 50.296,187.523 51.421,187.735 51.833 L 188.118 52.583 189.126 52.633 L 190.133 52.682 189.910 52.036 C 189.788 51.681,189.429 50.871,189.113 50.237 C 188.797 49.602,188.148 48.221,187.670 47.167 C 187.193 46.112,186.590 44.800,186.331 44.250 C 186.072 43.700,185.209 41.825,184.415 40.083 C 183.620 38.342,182.686 36.317,182.338 35.583 C 181.990 34.850,181.341 33.445,180.895 32.462 L 180.083 30.674 179.121 30.670 C 178.227 30.667,178.146 30.699,177.971 31.125 M196.333 41.667 L 196.333 52.667 197.250 52.667 L 198.167 52.667 198.172 43.458 L 198.176 34.250 198.630 34.763 C 198.879 35.046,199.533 35.864,200.083 36.581 C 200.633 37.298,201.329 38.192,201.629 38.567 C 201.929 38.943,202.454 39.609,202.796 40.047 C 203.137 40.486,203.679 41.171,204.000 41.570 C 204.321 41.969,205.258 43.173,206.083 44.246 C 206.908 45.318,207.905 46.583,208.298 47.056 C 208.690 47.530,209.068 47.992,209.136 48.083 C 210.209 49.531,211.267 50.833,211.370 50.833 C 211.441 50.833,211.500 50.927,211.500 51.042 C 211.501 51.673,212.752 52.667,213.546 52.667 L 214.333 52.667 214.333 41.667 L 214.333 30.667 213.418 30.667 L 212.503 30.667 212.460 39.932 L 212.417 49.198 211.500 48.002 C 210.996 47.344,210.358 46.520,210.083 46.170 C 209.281 45.151,208.510 44.161,207.013 42.228 C 206.242 41.232,205.379 40.145,205.097 39.812 C 204.501 39.110,204.271 38.817,203.121 37.292 C 202.655 36.673,202.212 36.167,202.137 36.167 C 202.061 36.167,202.000 36.071,202.000 35.954 C 202.000 35.837,201.783 35.504,201.518 35.214 C 201.253 34.923,200.862 34.438,200.649 34.135 C 200.436 33.831,200.177 33.508,200.074 33.417 C 199.970 33.325,199.535 32.785,199.107 32.218 C 197.985 30.731,197.901 30.667,197.071 30.667 L 196.333 30.667 196.333 41.667 M224.167 41.643 L 224.167 52.667 229.475 52.667 C 234.076 52.667,234.987 52.624,236.319 52.345 C 246.271 50.262,247.880 36.199,238.661 31.878 C 236.442 30.838,236.260 30.814,229.958 30.712 L 224.167 30.619 224.167 41.643 M252.333 41.667 L 252.333 52.667 253.333 52.667 L 254.333 52.667 254.333 41.667 L 254.333 30.667 253.333 30.667 L 252.333 30.667 252.333 41.667 M264.167 41.667 L 264.167 52.667 265.083 52.667 L 266.000 52.667 266.005 43.458 L 266.010 34.250 266.463 34.763 C 266.713 35.046,267.367 35.864,267.917 36.581 C 268.467 37.298,269.162 38.192,269.462 38.567 C 269.763 38.943,270.288 39.609,270.629 40.047 C 270.971 40.486,271.512 41.171,271.833 41.570 C 272.154 41.969,273.092 43.175,273.917 44.250 C 274.742 45.326,275.698 46.524,276.042 46.913 C 276.385 47.302,276.667 47.702,276.667 47.802 C 276.667 47.902,276.764 48.043,276.884 48.117 C 277.003 48.190,277.544 48.831,278.087 49.542 C 278.629 50.252,279.131 50.833,279.203 50.833 C 279.275 50.833,279.333 50.927,279.334 51.042 C 279.334 51.673,280.585 52.667,281.379 52.667 L 282.167 52.667 282.167 41.667 L 282.167 30.667 281.251 30.667 L 280.336 30.667 280.293 39.932 L 280.250 49.198 279.333 48.002 C 278.227 46.559,277.892 46.129,275.750 43.410 C 274.833 42.247,273.938 41.098,273.759 40.856 C 273.581 40.614,273.206 40.145,272.926 39.812 C 272.328 39.102,272.087 38.795,270.954 37.292 C 270.488 36.673,270.045 36.167,269.970 36.167 C 269.895 36.167,269.833 36.071,269.833 35.954 C 269.833 35.837,269.617 35.504,269.352 35.214 C 269.087 34.923,268.696 34.438,268.483 34.135 C 268.270 33.831,268.011 33.508,267.907 33.417 C 267.803 33.325,267.368 32.785,266.940 32.218 C 265.819 30.731,265.735 30.667,264.905 30.667 L 264.167 30.667 264.167 41.667 M297.728 32.292 C 296.796 34.257,296.006 35.954,294.836 38.500 C 294.352 39.554,293.746 40.867,293.491 41.417 C 293.236 41.967,292.376 43.842,291.579 45.583 C 290.783 47.325,289.861 49.313,289.531 50.000 C 288.938 51.234,288.507 52.298,288.503 52.542 C 288.501 52.610,288.931 52.666,289.458 52.665 L 290.417 52.663 290.973 51.457 C 291.279 50.793,291.833 49.575,292.204 48.750 C 292.574 47.925,292.932 47.137,292.999 47.000 C 293.103 46.784,293.977 46.750,299.351 46.750 L 305.583 46.750 306.052 47.750 C 306.310 48.300,306.816 49.359,307.177 50.102 C 307.538 50.846,307.833 51.542,307.833 51.650 C 307.833 52.309,308.367 52.667,309.353 52.667 C 310.561 52.667,310.592 52.937,308.988 49.482 C 306.982 45.162,306.946 45.083,305.916 42.833 C 304.980 40.789,304.104 38.903,303.169 36.917 C 302.664 35.844,300.962 32.101,300.574 31.208 C 300.349 30.691,300.297 30.667,299.418 30.667 L 298.498 30.667 297.728 32.292 M311.833 30.998 C 311.833 31.180,312.125 31.948,312.481 32.706 C 313.201 34.238,314.071 36.171,316.684 42.042 C 317.041 42.844,317.625 44.156,317.982 44.958 C 318.607 46.361,319.386 48.107,320.768 51.202 L 321.417 52.653 322.356 52.660 C 323.359 52.667,323.622 52.471,323.908 51.500 C 323.976 51.271,324.362 50.399,324.766 49.563 C 325.170 48.727,325.500 47.997,325.500 47.941 C 325.500 47.885,325.800 47.199,326.167 46.417 C 326.533 45.634,326.833 44.953,326.833 44.904 C 326.833 44.854,327.133 44.194,327.500 43.436 C 327.867 42.679,328.167 41.987,328.167 41.898 C 328.167 41.809,328.419 41.252,328.727 40.660 C 329.035 40.068,329.344 39.396,329.413 39.167 C 329.482 38.938,329.783 38.260,330.080 37.661 C 330.378 37.062,330.678 36.387,330.748 36.161 C 330.817 35.935,331.171 35.112,331.535 34.333 C 333.225 30.710,333.180 30.828,332.938 30.735 C 332.481 30.560,331.120 30.745,330.998 31.000 C 330.871 31.263,329.954 33.312,328.833 35.833 C 328.467 36.658,327.867 38.008,327.500 38.833 C 326.019 42.166,325.426 43.480,324.811 44.788 C 324.457 45.542,324.167 46.212,324.167 46.276 C 324.167 46.340,323.866 47.014,323.498 47.773 C 323.131 48.533,322.748 49.363,322.648 49.619 C 322.446 50.137,322.398 50.054,320.686 46.208 C 320.309 45.360,319.708 44.010,319.351 43.208 C 318.994 42.406,318.350 40.962,317.920 40.000 C 317.491 39.037,316.891 37.688,316.588 37.000 C 316.285 36.313,315.663 34.925,315.206 33.917 C 314.750 32.908,314.242 31.765,314.079 31.375 L 313.783 30.667 312.808 30.667 C 311.947 30.667,311.833 30.705,311.833 30.998 M338.833 41.667 L 338.833 52.667 339.750 52.667 L 340.667 52.667 340.667 41.667 L 340.667 30.667 339.750 30.667 L 338.833 30.667 338.833 41.667 M356.107 32.462 C 355.662 33.445,355.011 34.850,354.661 35.583 C 354.312 36.317,353.599 37.854,353.077 39.000 C 352.085 41.179,351.447 42.572,350.673 44.250 C 350.419 44.800,349.818 46.112,349.337 47.167 C 348.856 48.221,348.172 49.683,347.818 50.417 C 347.463 51.150,347.126 51.956,347.068 52.208 L 346.964 52.667 347.940 52.664 L 348.917 52.661 349.277 51.872 C 349.475 51.438,349.989 50.296,350.418 49.333 C 350.847 48.371,351.288 47.396,351.397 47.167 L 351.596 46.750 357.833 46.750 L 364.071 46.750 364.275 47.167 C 365.225 49.107,366.167 51.189,366.167 51.349 C 366.167 52.129,366.857 52.667,367.858 52.667 C 368.993 52.667,368.995 52.657,368.244 51.167 C 368.036 50.754,367.442 49.479,366.923 48.333 C 366.405 47.188,365.694 45.650,365.344 44.917 C 364.994 44.183,364.314 42.721,363.834 41.667 C 362.972 39.776,362.464 38.669,361.518 36.625 C 360.628 34.699,359.219 31.587,359.029 31.125 C 358.854 30.699,358.773 30.667,357.879 30.670 L 356.917 30.674 356.107 32.462 M374.833 41.667 L 374.833 52.667 375.833 52.667 L 376.833 52.667 376.833 43.479 L 376.833 34.291 377.668 35.354 C 378.128 35.938,378.784 36.776,379.127 37.216 C 379.469 37.656,379.963 38.273,380.223 38.588 C 380.483 38.903,380.858 39.384,381.056 39.657 C 381.935 40.866,384.650 44.278,384.895 44.482 C 385.045 44.606,385.167 44.784,385.167 44.877 C 385.167 44.970,385.448 45.364,385.792 45.753 C 386.135 46.141,386.829 47.002,387.333 47.665 C 387.837 48.328,388.408 49.041,388.600 49.250 C 388.793 49.459,389.118 49.901,389.322 50.232 C 389.527 50.563,389.744 50.834,389.805 50.834 C 389.867 50.835,390.104 51.114,390.333 51.455 C 391.058 52.531,391.263 52.667,392.167 52.667 L 393.000 52.667 393.000 41.667 L 393.000 30.667 392.001 30.667 L 391.003 30.667 390.960 39.958 L 390.917 49.250 390.546 48.667 C 390.343 48.346,389.757 47.558,389.246 46.917 C 388.298 45.728,387.314 44.481,386.417 43.328 C 383.657 39.785,383.057 39.030,382.721 38.686 C 382.508 38.467,382.333 38.223,382.333 38.144 C 382.333 38.065,382.180 37.846,381.992 37.659 C 381.804 37.471,381.010 36.477,380.228 35.450 C 379.445 34.423,378.699 33.523,378.569 33.450 C 378.439 33.377,378.333 33.222,378.333 33.107 C 378.333 32.991,378.125 32.676,377.871 32.407 C 377.617 32.137,377.201 31.635,376.946 31.292 C 376.520 30.716,376.418 30.667,375.658 30.667 L 374.833 30.667 374.833 41.667 M133.500 33.014 C 136.848 34.613,136.676 38.978,133.216 40.220 C 132.343 40.533,131.796 40.572,127.542 40.628 L 122.833 40.690 122.833 36.500 L 122.833 32.310 127.542 32.363 L 132.250 32.417 133.500 33.014 M156.885 32.580 C 159.328 33.097,160.952 34.349,161.506 36.142 C 162.384 38.986,161.347 41.960,159.116 42.999 C 157.270 43.858,157.101 43.884,152.875 43.961 L 148.833 44.034 148.833 38.184 L 148.833 32.333 152.292 32.336 C 154.660 32.338,156.108 32.415,156.885 32.580 M234.860 32.568 C 241.401 33.824,244.710 40.077,241.894 45.861 C 239.946 49.864,237.360 50.984,230.042 50.995 L 226.167 51.000 226.167 41.667 L 226.167 32.333 229.902 32.333 C 232.425 32.333,234.034 32.410,234.860 32.568 M180.922 36.917 C 181.221 37.558,181.820 38.871,182.255 39.833 C 182.690 40.796,183.373 42.284,183.773 43.140 C 184.173 43.996,184.500 44.765,184.500 44.848 C 184.500 44.936,182.231 45.000,179.085 45.000 L 173.669 45.000 174.232 43.792 C 174.541 43.127,175.152 41.796,175.591 40.833 C 176.029 39.871,176.632 38.558,176.930 37.917 C 178.364 34.833,179.001 33.375,179.010 33.156 C 179.019 32.933,179.626 34.126,180.922 36.917 M300.454 35.417 C 300.868 36.333,301.450 37.608,301.749 38.250 C 302.323 39.485,304.274 43.763,304.693 44.708 C 304.815 44.983,304.504 45.000,299.423 45.000 L 294.023 45.000 294.157 44.542 C 294.230 44.290,294.591 43.446,294.959 42.667 C 295.327 41.887,295.948 40.537,296.339 39.667 C 296.730 38.796,297.295 37.558,297.595 36.917 C 297.896 36.275,298.425 35.123,298.772 34.356 C 299.341 33.102,299.418 33.002,299.553 33.356 C 299.635 33.573,300.041 34.500,300.454 35.417 M360.075 37.917 C 360.374 38.558,360.975 39.871,361.410 40.833 C 361.846 41.796,362.452 43.108,362.758 43.750 L 363.314 44.917 357.965 44.961 C 355.023 44.985,352.575 44.964,352.526 44.915 C 352.476 44.865,352.742 44.170,353.116 43.371 C 353.491 42.571,354.187 41.054,354.663 40.000 C 355.139 38.946,355.670 37.783,355.843 37.417 C 356.016 37.050,356.537 35.928,357.000 34.924 L 357.842 33.098 358.687 34.924 C 359.151 35.928,359.776 37.275,360.075 37.917 M133.552 42.737 C 137.790 43.624,138.462 48.439,134.630 50.452 L 133.750 50.914 128.292 50.971 L 122.833 51.028 122.833 46.764 L 122.833 42.500 127.625 42.500 C 131.130 42.500,132.722 42.564,133.552 42.737 M120.667 73.417 L 120.667 88.833 232.667 88.833 L 344.667 88.833 344.667 73.417 L 344.667 58.000 232.667 58.000 L 120.667 58.000 120.667 73.417 M142.268 62.950 C 143.600 63.388,145.758 64.640,146.080 65.161 C 146.331 65.568,145.465 66.191,145.105 65.862 C 142.237 63.234,136.869 62.791,133.250 64.883 C 127.540 68.185,126.714 76.393,131.643 80.857 C 135.133 84.018,141.041 84.227,144.662 81.317 C 145.354 80.761,145.694 80.761,145.992 81.318 C 146.369 82.022,143.375 83.821,141.110 84.252 C 132.229 85.940,125.347 78.951,127.513 70.444 C 129.087 64.266,135.842 60.834,142.268 62.950 M195.750 62.889 C 202.258 65.017,205.269 72.231,202.254 78.470 C 198.284 86.685,185.567 86.547,181.732 78.246 C 177.545 69.183,186.154 59.751,195.750 62.889 M333.083 62.834 C 334.614 63.320,335.582 63.832,336.500 64.640 L 337.250 65.300 336.850 65.729 L 336.450 66.158 335.898 65.673 C 330.692 61.101,321.176 64.122,319.590 70.849 C 317.588 79.342,326.124 86.173,334.020 82.397 C 336.131 81.388,336.000 81.724,336.000 77.304 L 336.000 73.500 336.583 73.500 L 337.167 73.500 337.167 77.652 L 337.167 81.805 336.354 82.402 C 330.258 86.876,320.956 84.120,318.556 77.128 C 315.540 68.341,324.054 59.963,333.083 62.834 M159.667 72.917 L 159.667 83.333 166.094 83.333 L 172.521 83.333 172.469 83.875 L 172.417 84.417 165.417 84.417 L 158.417 84.417 158.374 73.458 L 158.331 62.500 158.999 62.500 L 159.667 62.500 159.667 72.917 M228.917 63.083 L 228.917 63.583 224.875 63.628 L 220.833 63.673 220.833 74.097 L 220.833 84.521 220.292 84.469 L 219.750 84.417 219.707 74.042 L 219.664 63.667 215.665 63.667 L 211.667 63.667 211.667 63.082 L 211.667 62.497 220.292 62.540 L 228.917 62.583 228.917 63.083 M241.000 67.583 L 241.000 72.667 248.583 72.667 L 256.167 72.667 256.167 67.583 L 256.167 62.500 256.750 62.500 L 257.333 62.500 257.333 73.417 L 257.333 84.333 256.750 84.333 L 256.167 84.333 256.167 79.083 L 256.167 73.833 248.583 73.833 L 241.000 73.833 241.000 79.083 L 241.000 84.333 240.333 84.333 L 239.667 84.333 239.667 73.417 L 239.667 62.500 240.333 62.500 L 241.000 62.500 241.000 67.583 M273.333 73.417 L 273.333 84.333 272.667 84.333 L 272.000 84.333 272.000 73.528 C 272.000 67.585,272.050 62.672,272.111 62.611 C 272.172 62.550,272.472 62.500,272.778 62.500 L 273.333 62.500 273.333 73.417 M289.917 63.590 C 290.882 64.843,291.009 65.006,294.000 68.837 C 295.237 70.422,296.587 72.152,297.000 72.681 C 298.039 74.014,300.181 76.783,300.582 77.312 C 300.765 77.553,301.515 78.508,302.249 79.435 C 302.983 80.362,303.748 81.337,303.949 81.602 L 304.315 82.083 304.324 72.292 L 304.333 62.500 305.000 62.500 L 305.667 62.500 305.667 73.422 C 305.667 82.984,305.635 84.356,305.416 84.440 C 304.693 84.717,304.835 84.882,296.112 73.622 C 295.669 73.051,295.069 72.275,294.779 71.897 C 294.202 71.149,289.864 65.602,289.565 65.230 C 289.463 65.103,289.333 65.000,289.275 65.000 C 289.217 65.000,289.150 69.369,289.126 74.708 L 289.083 84.417 288.583 84.417 L 288.083 84.417 288.040 73.458 L 287.998 62.500 288.540 62.504 C 289.010 62.508,289.196 62.655,289.917 63.590 M189.750 63.757 C 183.313 65.154,180.129 72.061,183.111 78.158 C 186.597 85.287,197.938 85.017,201.210 77.727 C 204.682 69.989,198.087 61.949,189.750 63.757 " stroke="none" fill="#0c0c0c" fill-rule="evenodd"></path><path id="path3" d="M137.713 62.456 C 138.152 62.490,138.827 62.490,139.213 62.455 C 139.600 62.420,139.242 62.392,138.417 62.392 C 137.592 62.393,137.275 62.422,137.713 62.456 M191.380 62.456 C 191.818 62.490,192.493 62.490,192.880 62.455 C 193.267 62.420,192.908 62.392,192.083 62.392 C 191.258 62.393,190.942 62.422,191.380 62.456 M328.713 62.456 C 329.152 62.490,329.827 62.490,330.213 62.455 C 330.600 62.420,330.242 62.392,329.417 62.392 C 328.592 62.393,328.275 62.422,328.713 62.456 M159.578 72.917 C 159.578 78.692,159.599 81.030,159.625 78.113 C 159.650 75.196,159.650 70.471,159.625 67.613 C 159.599 64.755,159.578 67.142,159.578 72.917 M240.908 67.667 C 240.908 70.554,240.930 71.735,240.958 70.292 C 240.986 68.848,240.986 66.485,240.958 65.042 C 240.930 63.598,240.908 64.779,240.908 67.667 M257.245 73.417 C 257.245 79.467,257.266 81.917,257.292 78.863 C 257.317 75.808,257.317 70.858,257.292 67.863 C 257.266 64.867,257.245 67.367,257.245 73.417 M273.245 73.417 C 273.245 79.467,273.266 81.917,273.292 78.863 C 273.317 75.808,273.317 70.858,273.292 67.863 C 273.266 64.867,273.245 67.367,273.245 73.417 M288.079 73.417 C 288.079 79.467,288.099 81.917,288.125 78.863 C 288.150 75.808,288.150 70.858,288.125 67.863 C 288.099 64.867,288.079 67.367,288.079 73.417 M304.374 72.218 C 304.342 80.002,304.290 81.995,304.125 81.902 C 303.960 81.809,303.959 81.830,304.122 82.006 C 304.494 82.407,304.503 82.139,304.458 72.235 L 304.414 62.417 304.374 72.218 M211.734 63.167 L 211.750 63.583 215.707 63.628 L 219.664 63.673 219.708 74.045 L 219.753 84.417 219.793 73.958 L 219.833 63.500 215.844 63.500 L 211.855 63.500 211.787 63.125 C 211.727 62.799,211.720 62.804,211.734 63.167 M305.579 73.500 C 305.579 79.504,305.599 81.960,305.625 78.958 C 305.650 75.956,305.650 71.044,305.625 68.042 C 305.599 65.040,305.579 67.496,305.579 73.500 M138.042 63.453 C 138.294 63.491,138.706 63.491,138.958 63.453 C 139.210 63.415,139.004 63.383,138.500 63.383 C 137.996 63.383,137.790 63.415,138.042 63.453 M191.542 63.453 C 191.794 63.491,192.206 63.491,192.458 63.453 C 192.710 63.415,192.504 63.383,192.000 63.383 C 191.496 63.383,191.290 63.415,191.542 63.453 M328.961 63.454 C 329.261 63.491,329.711 63.490,329.961 63.452 C 330.212 63.414,329.967 63.384,329.417 63.385 C 328.867 63.386,328.662 63.417,328.961 63.454 M222.792 63.625 C 223.915 63.653,225.752 63.653,226.875 63.625 C 227.998 63.596,227.079 63.572,224.833 63.572 C 222.588 63.572,221.669 63.596,222.792 63.625 M183.824 65.625 L 183.250 66.250 183.875 65.676 C 184.219 65.360,184.500 65.078,184.500 65.051 C 184.500 64.923,184.359 65.043,183.824 65.625 M321.075 65.708 L 320.417 66.417 321.125 65.758 C 321.515 65.395,321.833 65.077,321.833 65.050 C 321.833 64.923,321.688 65.050,321.075 65.708 M199.326 66.375 C 200.017 67.111,200.167 67.243,200.167 67.118 C 200.167 67.091,199.810 66.735,199.375 66.326 L 198.583 65.583 199.326 66.375 M319.205 72.167 C 319.205 72.487,319.240 72.619,319.282 72.458 C 319.323 72.298,319.323 72.035,319.282 71.875 C 319.240 71.715,319.205 71.846,319.205 72.167 M318.061 73.417 C 318.061 74.333,318.089 74.687,318.123 74.203 C 318.157 73.718,318.156 72.968,318.122 72.536 C 318.088 72.104,318.060 72.500,318.061 73.417 M181.872 72.667 C 181.872 72.987,181.906 73.119,181.948 72.958 C 181.990 72.798,181.990 72.535,181.948 72.375 C 181.906 72.215,181.872 72.346,181.872 72.667 M202.212 73.500 C 202.212 73.912,202.245 74.081,202.284 73.875 C 202.324 73.669,202.324 73.331,202.284 73.125 C 202.245 72.919,202.212 73.087,202.212 73.500 M336.497 73.594 L 336.994 73.687 337.043 77.635 L 337.092 81.583 337.088 77.583 L 337.083 73.583 336.542 73.542 C 336.013 73.501,336.012 73.502,336.497 73.594 M240.908 79.083 C 240.908 82.017,240.930 83.193,240.958 81.698 C 240.986 80.202,240.986 77.802,240.958 76.365 C 240.930 74.927,240.908 76.150,240.908 79.083 M184.667 80.583 C 184.978 80.904,185.270 81.167,185.315 81.167 C 185.361 81.167,185.144 80.904,184.833 80.583 C 184.522 80.262,184.230 80.000,184.185 80.000 C 184.139 80.000,184.356 80.262,184.667 80.583 M322.000 80.583 C 322.311 80.904,322.603 81.167,322.649 81.167 C 322.695 81.167,322.478 80.904,322.167 80.583 C 321.856 80.262,321.564 80.000,321.518 80.000 C 321.472 80.000,321.689 80.262,322.000 80.583 M144.979 81.125 C 144.771 81.390,144.777 81.396,145.045 81.185 C 145.300 80.985,145.389 80.996,145.711 81.269 L 146.083 81.583 145.766 81.208 C 145.384 80.757,145.276 80.746,144.979 81.125 " stroke="none" fill="#616161" fill-rule="evenodd"></path><path id="path4" d="M158.415 73.417 L 158.417 84.417 165.417 84.417 L 172.417 84.417 172.438 83.833 L 172.460 83.250 172.386 83.792 L 172.312 84.333 165.407 84.333 L 158.502 84.333 158.458 73.375 L 158.413 62.417 158.415 73.417 M239.745 73.417 C 239.745 79.467,239.766 81.917,239.792 78.863 C 239.817 75.808,239.817 70.858,239.792 67.863 C 239.766 64.867,239.745 67.367,239.745 73.417 M272.079 73.500 C 272.079 79.504,272.099 81.960,272.125 78.958 C 272.150 75.956,272.150 71.044,272.125 68.042 C 272.099 65.040,272.079 67.496,272.079 73.500 M199.667 65.052 C 199.667 65.081,199.910 65.325,200.208 65.594 L 200.750 66.083 200.260 65.542 C 199.804 65.037,199.667 64.923,199.667 65.052 M184.906 66.208 L 184.417 66.750 184.958 66.260 C 185.463 65.804,185.577 65.667,185.448 65.667 C 185.419 65.667,185.175 65.910,184.906 66.208 M322.000 66.417 C 321.595 66.829,321.301 67.167,321.347 67.167 C 321.393 67.167,321.762 66.829,322.167 66.417 C 322.572 66.004,322.865 65.667,322.819 65.667 C 322.774 65.667,322.405 66.004,322.000 66.417 M180.712 72.500 C 180.712 72.912,180.745 73.081,180.784 72.875 C 180.824 72.669,180.824 72.331,180.784 72.125 C 180.745 71.919,180.712 72.087,180.712 72.500 M128.372 72.500 C 128.372 72.821,128.406 72.952,128.448 72.792 C 128.490 72.631,128.490 72.369,128.448 72.208 C 128.406 72.048,128.372 72.179,128.372 72.500 M244.803 72.792 C 246.941 72.818,250.391 72.818,252.470 72.791 C 254.549 72.765,252.800 72.743,248.583 72.743 C 244.367 72.744,242.666 72.765,244.803 72.792 M319.217 73.500 C 319.217 74.004,319.248 74.210,319.286 73.958 C 319.324 73.706,319.324 73.294,319.286 73.042 C 319.248 72.790,319.217 72.996,319.217 73.500 M180.712 74.333 C 180.712 74.746,180.745 74.915,180.784 74.708 C 180.824 74.502,180.824 74.165,180.784 73.958 C 180.745 73.752,180.712 73.921,180.712 74.333 M128.375 74.417 C 128.377 74.783,128.411 74.914,128.451 74.706 C 128.491 74.499,128.490 74.199,128.448 74.040 C 128.406 73.880,128.374 74.050,128.375 74.417 M137.958 83.454 C 138.256 83.491,138.744 83.491,139.042 83.454 C 139.340 83.417,139.096 83.387,138.500 83.387 C 137.904 83.387,137.660 83.417,137.958 83.454 M191.458 83.454 C 191.756 83.491,192.244 83.491,192.542 83.454 C 192.840 83.417,192.596 83.387,192.000 83.387 C 191.404 83.387,191.160 83.417,191.458 83.454 M328.958 83.454 C 329.256 83.491,329.744 83.491,330.042 83.454 C 330.340 83.417,330.096 83.387,329.500 83.387 C 328.904 83.387,328.660 83.417,328.958 83.454 M220.042 84.448 C 220.202 84.490,220.465 84.490,220.625 84.448 C 220.785 84.406,220.654 84.372,220.333 84.372 C 220.012 84.372,219.881 84.406,220.042 84.448 " stroke="none" fill="#444444" fill-rule="evenodd"></path></g></svg>